PathFileType        4      (X/Y/Z)      C:\Users\pc\Desktop\IMUTRC\Sujet_08\Sujet_08_velo_60.trc         
DataRate	CameraRate	NumFrames	NumMarkers	Units	OrigDataRate	OrigDataStartFrame	OrigNumFrames
60.0	60.0	4	64	mm	60.0	584	934
Frame#	Time	pHipOrigin			pRightASI			pLeftASI			pRightCSI			pLeftCSI			pRightIschialTub			pLeftIschialTub			pSacrum			pL5SpinalProcess			pL3SpinalProcess			pT12SpinalProcess			pIJ			pT4SpinalProcess			pT8SpinalProcess			pPX			pC7SpinalProcess			pTopOfHead			pRightAuricularis			pLeftAuricularis			pBackOfHead			pRightAcromion			pLeftAcromion			pRightArmLatEpicondyle			pRightArmMedEpicondyle			pLeftArmLatEpicondyle			pLeftArmMedEpicondyle			pRightUlnarStyloid			pRightRadialStyloid			pRightOlecranon			pLeftUlnarStyloid			pLeftRadialStyloid			pLeftOlecranon			pRightTopOfHand			pRightPinky			pRightBallHand			pLeftTopOfHand			pLeftPinky			pLeftBallHand			pRightGreaterTrochanter			pRightKneeLatEpicondyle			pRightKneeMedEpicondyle			pRightPatella			pLeftGreaterTrochanter			pLeftKneeLatEpicondyle			pLeftKneeMedEpicondyle			pLeftPatella			pRightTibialTub			pRightLatMalleolus			pRightMedMalleolus			pLeftTibialTub			pLeftLatMalleolus			pLeftMedMalleolus			pRightHeelFoot			pRightFirstMetatarsal			pRightFifthMetatarsal			pRightPivotFoot			pRightHeelCenter			pRightToe			pLeftHeelFoot			pLeftFirstMetatarsal			pLeftFifthMetatarsal			pLeftPivotFoot			pLeftHeelCenter			pLeftToe			
		X1	Y1	Z1	X2	Y2	Z2	X3	Y3	Z3	X4	Y4	Z4	X5	Y5	Z5	X6	Y6	Z6	X7	Y7	Z7	X8	Y8	Z8	X9	Y9	Z9	X10	Y10	Z10	X11	Y11	Z11	X12	Y12	Z12	X13	Y13	Z13	X14	Y14	Z14	X15	Y15	Z15	X16	Y16	Z16	X17	Y17	Z17	X18	Y18	Z18	X19	Y19	Z19	X20	Y20	Z20	X21	Y21	Z21	X22	Y22	Z22	X23	Y23	Z23	X24	Y24	Z24	X25	Y25	Z25	X26	Y26	Z26	X27	Y27	Z27	X28	Y28	Z28	X29	Y29	Z29	X30	Y30	Z30	X31	Y31	Z31	X32	Y32	Z32	X33	Y33	Z33	X34	Y34	Z34	X35	Y35	Z35	X36	Y36	Z36	X37	Y37	Z37	X38	Y38	Z38	X39	Y39	Z39	X40	Y40	Z40	X41	Y41	Z41	X42	Y42	Z42	X43	Y43	Z43	X44	Y44	Z44	X45	Y45	Z45	X46	Y46	Z46	X47	Y47	Z47	X48	Y48	Z48	X49	Y49	Z49	X50	Y50	Z50	X51	Y51	Z51	X52	Y52	Z52	X53	Y53	Z53	X54	Y54	Z54	X55	Y55	Z55	X56	Y56	Z56	X57	Y57	Z57	X58	Y58	Z58	X59	Y59	Z59	X60	Y60	Z60	X61	Y61	Z61	X62	Y62	Z62	X63	Y63	Z63	X64	Y64	Z64	
584	9.717	0.0	1249.97582	7.653894434872941E-14	99.47669917240192	1328.82641	122.54632151551824	77.98683626098828	1322.04009	-140.80436265569395	73.2092426273941	1402.99122	99.37455434452704	55.66642931697552	1397.33595	-117.50414803085695	-62.703722693657134	1212.81263	60.64297588909582	-71.64827956607397	1209.90421	-47.744864960498106	-57.09564034743498	1287.62375	3.7145179754653865	4.352085890843518	1371.64487	-2.349969533572805	68.45763829749332	1466.65338	-11.391325695746492	126.74131430983896	1553.7445	-19.982582057049218	369.5534012794456	1602.70297	-60.844835079670105	256.46832852151374	1690.11725	-41.079430984591255	192.87782330953004	1633.72615	-30.30654194044086	285.84866912417624	1521.75184	-46.72761701694166	293.29983988748427	1721.14044	-42.46048750696361	417.7991419957221	1912.2885	-98.11380958983763	441.8819738938463	1817.60315	-34.63747151170577	355.3716295092562	1822.28895	-137.66995002476315	359.43633730261604	1832.30685	-52.784439278759486	332.0053120465201	1669.91987	104.64563981894382	273.7242405485048	1672.98987	-204.07731745689875	469.3483509253109	1420.92649	61.75760258094289	433.7828413764952	1408.00017	13.155938170250204	403.712320383615	1409.61596	-165.24194774660745	374.5726676365837	1400.89069	-111.64238758760402	560.8859053443736	1187.60629	36.716146102140584	599.7075830140989	1209.25789	10.090821170976898	432.02869775678283	1406.86911	52.88013412363637	503.40483054829974	1183.24366	-173.25865685426075	547.7263466905656	1206.67262	-160.35735660486841	366.5368388497077	1396.36647	-147.022162897367	727.6052079336663	1088.55831	93.34915178872443	637.3348161237931	1106.17043	76.77576577999146	596.7157821914892	1156.25995	34.502183861491176	650.998231801554	1089.20463	-275.20989000571603	568.785614345771	1103.58517	-233.26552200980038	540.0107049572969	1153.18995	-181.73458181671344	40.17642519101297	1240.76581	157.37386565606172	408.7678081278144	1100.9999	111.28992905983135	406.06142738990775	1102.61569	34.51938389305994	419.82573515489287	1143.01046	70.90924460508481	-4.64597379144362	1215.55947	-158.8202615220816	227.5109993190792	893.53235	-156.93378641297488	246.5783505718838	900.48025	-82.69272710535341	269.6632247818656	924.0708	-128.00781883291938	449.5070359873157	1067.22987	75.65064086852007	319.3461469865036	714.01799	140.14997957418717	320.91961986371814	707.55482	80.0490419838536	269.991078819175	850.87547	-126.14522052324014	46.09546430787721	542.74415	-153.48275453955765	53.07704333739402	538.21994	-93.51404664192482	260.3647967606951	646.31635	112.68652399077914	406.2821062584687	599.13526	73.27921327765048	408.2113037368588	600.42789	147.94386879196443	427.35652210887883	593.31841	109.15325447986353	296.6067001262807	637.59108	111.85779419769135	503.10698635968987	568.27365	107.57958700955524	-33.75912468077826	513.17518	-116.53696889511097	74.67989392165308	399.90824	-94.13481182351742	67.59337095683728	402.33193	-168.39627206806176	85.63519395886962	385.68928	-132.07252301483027	-6.57808736995975	487.96884	-119.94780963393066	139.20165050844383	327.03607	-139.03448327064746	
585	9.733	0.0	1249.97582	7.653894434872941E-14	99.66388248168106	1328.82641	122.41525435133396	77.5375284714181	1322.36325	-141.04766037358615	73.52748325278	1402.82964	99.43066875314011	55.18905360678038	1397.49753	-117.58832224849922	-62.57265552947285	1212.65105	60.83015919837496	-71.67633590213961	1209.90421	-47.58574957184393	-57.123698419982404	1287.62375	3.873643212197101	4.324027818296095	1371.64487	-2.1908442968410924	68.27045498821418	1466.65338	-11.260258531562199	126.58219892118477	1553.90608	-20.010638393114863	369.4223439633388	1602.86455	-61.03201665246747	256.33726135732945	1690.27883	-41.26661429387038	192.58763090861405	1633.72615	-30.52178332226741	285.71760195999195	1521.91342	-46.91480032622079	293.03770382263383	1721.30202	-42.834844277444375	417.24682511451505	1912.2885	-98.70341585374068	441.48877240129343	1817.76473	-35.19902143954319	354.95036820767416	1822.28895	-138.0723648677913	359.20226104679483	1832.46843	-53.31793113404948	331.7431759816698	1670.24303	104.27128304846309	273.2749229108571	1672.98987	-204.3206169112727	469.37640899785833	1421.24965	61.598477344211176	433.65178406038837	1408.32333	12.968756597452826	403.422127982699	1409.77754	-165.457189128434	374.12334999893596	1401.05227	-111.885687041978	560.7267899557194	1187.92945	36.688089766074924	599.5484676254448	1209.41947	10.062764834911253	431.8976305925986	1407.03069	52.69295081435724	503.40483054829974	1183.40524	-173.25865685426075	547.5391633812865	1206.99578	-160.22628944068416	366.24664644879164	1396.52805	-147.23740427919358	727.418024624387	1089.04305	93.48021895290871	637.3067580512457	1106.49359	76.93489101672317	596.6877241189418	1156.58311	34.66130909822289	650.9421156564591	1089.36621	-274.8916395322526	568.7575580097053	1103.90832	-233.10640662114625	539.8235314960953	1153.5131	-181.60351291604738	39.16556747360539	1238.5037	157.52376943072238	402.98360495446303	1086.13463	113.38737767695919	401.4191490981483	1088.88147	36.65411204480626	416.0540242178038	1128.30677	73.68969516582904	-3.2888075280251776	1216.36737	-159.07317438837913	237.82563233225721	901.12657	-157.7401902735552	256.04125110438594	907.91289	-83.32116911872563	278.8828160119162	932.47291	-128.18694494512567	445.68843210368465	1053.98039	77.76653240979003	324.62491637711236	696.72902	138.12748197614877	326.7038230370695	691.07376	77.95159336672573	277.99380399662186	857.50022	-126.86705821632572	42.32338111709072	558.09417	-153.49158405177621	49.49213360780914	553.2468	-93.65394505480943	267.5342242700123	627.89633	110.17703727062202	414.82753490519895	584.59314	71.34049794740183	416.2793665214715	585.56261	145.92098098055524	435.87389268306174	579.09945	107.37366438634656	303.9071947997823	620.14054	109.53549078681336	512.0736763080022	556.15522	106.04328652233474	-38.16770708200983	530.94888	-116.65804054559673	66.76134296184856	414.45036	-93.89034984062701	59.993070470496164	417.1972	-168.0956939400765	77.3984023736792	399.90824	-131.88417544055292	-11.65123052714737	504.93465	-120.02197848979687	129.13031694963985	339.80082	-138.67739704771483	
586	9.75	0.0	1249.97582	7.653894434872941E-14	100.22542256144094	1328.66484	122.0220511222993	76.92908559703868	1322.52483	-141.31901790050753	73.90184987133827	1402.82964	99.16853442477154	54.711677896585236	1397.65911	-117.6724964661415	-62.28246312855684	1212.48947	61.04540058020151	-71.89157728396617	1210.06579	-47.29555717092793	-57.17981456507725	1287.62375	4.191893685660525	4.164902581564383	1371.64487	-2.218902369388515	68.1393878240299	1466.65338	-11.447441840841336	126.3200645928162	1553.90608	-20.385005011673137	369.0571988068516	1603.02613	-61.75268196895905	255.9440697128541	1690.44041	-41.828162485226024	192.32549658024547	1633.88773	-30.896149940825687	285.48352570417086	1522.075	-47.448292181510766	292.64450233008097	1721.4636	-43.39639420528176	416.7506145303253	1912.45008	-99.61127432758893	441.12362898128794	1818.08789	-35.9196966041123	354.45415762348443	1822.28895	-138.98022334163954	358.67800223813526	1832.63001	-54.066662634684235	331.66822496258027	1670.40461	103.76584926572052	272.85366160927504	1673.15145	-204.72303175430088	469.2733999062215	1421.41123	61.25216879820034	433.52071689620414	1408.32333	12.781573288173705	403.02892649014615	1409.93912	-166.0187390562714	373.7020904338357	1401.37542	-112.28811173308368	560.5676647189877	1187.92945	36.6600316935275	599.389342388713	1209.41947	10.034706762363843	431.76656342841426	1407.19227	52.50576750507811	503.0585220022889	1183.56682	-173.1556477626239	547.1928548352756	1207.15736	-160.12328034904723	365.82538688369135	1396.68963	-147.63982897029925	727.230841315108	1089.20463	93.611286117093	637.1195747419665	1106.65517	77.06595818090746	596.5285988822101	1156.74469	34.63325102567546	650.7268742746326	1089.52779	-274.60144713133656	568.5703747004262	1103.90832	-232.9753394569619	539.6363481868161	1153.67468	-181.47244575186318	38.313825144851975	1236.40318	157.7017295414487	396.2165905516922	1070.1383	115.47561294361176	395.50387876061257	1074.01619	38.56437735265498	411.3275815564796	1112.31044	76.30180076425229	-2.2779399625400636	1217.17527	-159.223076426558	248.48657215496428	909.52868	-158.64959337769486	265.8504485983396	916.15343	-84.052612112139	288.28960039932343	941.8445	-128.49713648503447	440.59684428587315	1039.43827	79.65797269172168	328.2282707673212	678.79375	136.30177125123546	330.46630266401	673.62322	76.1539407143599	286.2117607078177	865.25601	-127.87909004680904	40.1705904064955	574.0905	-153.3789713962933	47.52652447001127	568.91997	-93.67238971543331	272.5789272528776	608.99158	107.62104955377539	421.06105571619804	569.08155	69.48634878464793	422.16658052294156	569.56628	144.16983106136072	441.9482882573292	563.74944	105.49145715104527	309.242080335486	602.04368	107.19474271531152	518.7284468360241	542.421	104.59156031420478	-40.92894240346625	549.04574	-116.81677556895771	60.70539204820502	429.80037	-93.97375174312357	54.12430112964998	432.7088	-168.3101531586798	70.99614291402482	414.9351	-131.86456825141263	-15.077013283518752	522.38519	-120.13382867821159	121.26788213493015	353.37346	-138.75118553828784	
587	9.767	0.0	1249.97582	7.653894434872941E-14	100.81503056182575	1328.82641	121.46972439301473	76.18958540655248	1322.36325	-141.77755700022632	74.33233263499139	1402.82964	98.58814962293953	53.94411963355163	1397.65911	-117.97191032912856	-61.861213411534074	1212.65105	61.44782353482541	-72.10681866579273	1209.90421	-47.00536477001192	-57.07680547344038	1287.62375	4.538202231671375	4.164902581564383	1371.64487	-2.218902369388515	68.03637873239303	1466.65338	-11.793750386852182	126.08598833699503	1553.90608	-20.918496866963125	368.7762296044884	1603.1877	-62.9507328437233	255.63504070146172	1690.60199	-42.867078275181036	192.1475347330374	1633.88773	-31.74788242150156	285.1744966927785	1522.23658	-48.487207971465786	292.3354849032479	1721.4636	-44.43531810683253	416.3105183547486	1912.77324	-100.83737342682308	440.68354265378883	1818.24947	-37.14579396686467	354.0140712959853	1822.45053	-140.20632070439194	358.2379060625585	1832.79159	-55.29276173391839	331.7335625697462	1670.56618	102.46479914739693	272.22639370897855	1673.15145	-205.8180718009465	469.06738172294774	1421.57281	60.559551706178624	433.3146969764486	1408.32333	12.088966044229538	402.6357249975933	1410.26227	-166.58028898410882	373.4960722505619	1401.69858	-112.98072882510539	560.2494142455242	1187.92945	36.60391554843265	599.0710919152496	1209.25789	9.978590617268996	431.5605435086588	1407.19227	51.81316026113394	502.5811462920937	1183.72839	-173.23982198026616	546.8746142098897	1207.31894	-160.17939475766033	365.4602434636859	1397.01279	-148.36050413486836	726.8845327690971	1089.04305	93.71429520872988	636.8013242685031	1106.65517	77.00984203581261	596.2103484087467	1156.58311	34.577134880580616	650.3805674651036	1089.52779	-274.4984478877772	568.0649409176838	1104.0699	-232.9003884378725	539.158972476621	1153.83626	-181.55661996950542	37.33102549999182	1234.30265	157.69250807937766	388.04552852352015	1053.17249	117.15219394549185	388.3156146408189	1057.69671	40.25018966468365	405.51532031058076	1095.02148	78.55837461811186	-1.2670839816142454	1217.98316	-159.37297035314117	259.3346970234322	918.73869	-159.69007349409637	276.1650914595951	925.36343	-84.85901423623757	297.9116261685573	952.02398	-129.09752042585933	434.10119899458294	1023.60352	81.13775697239906	330.15620842064806	660.05057	134.6728572475249	332.581423626616	655.52636	74.39395954646503	294.77603407662014	873.8197	-128.99411938436995	39.665156623752935	590.73314	-153.3040203772039	47.18021592400042	585.23945	-93.5693806237964	275.761022077986	589.60209	105.39291413775645	424.85159341568595	552.27732	67.52957089555039	425.6388660124843	552.4389	142.15694687524586	445.738825956817	547.26837	103.53467926194772	312.42418500867194	583.30051	104.96660903577434	522.9683021731597	527.07098	102.87808187948121	-41.883683975779	567.46575	-116.98512226776047	56.83029976578166	445.7967	-94.32888980135297	50.408334083958344	448.8667	-168.6372331443618	66.80280015813804	430.76985	-132.27582245473687	-16.82738103949007	540.15889	-120.44246573975146	115.4271708666314	368.07716	-139.1247699936229	
